<?xml version="1.0" encoding="UTF-8"?>
<svg version="1.1" viewBox="0 0 1080 1080" width="500" height="500" xmlns="http://www.w3.org/2000/svg">
<path transform="translate(629,309)" d="m0 0 150 1 13 16 10 13 77 98 12 15 10 13 12 15 13 17 13 16 10 13 12 15 11 14-2 4-14 15-9 11-15 16-7 8-9 10-7 8-18 20-7 8-9 10-7 8-9 10-7 8-18 20-7 8-9 10-7 8-18 20-7 8-8 9h-149l2-4 13-14 7-8 18-20 7-8 9-10 7-8 18-20 7-8 12-14 13-14 7-8 9-10 7-8 10-11 7-8 9-10 7-8 18-20 5-6-2-5-13-16-88-112-12-15-13-17-13-16-10-13-12-15-13-17-13-16-3-4z" fill="#201c34"/>
<path transform="translate(372,310)" d="m0 0h149l11 13 10 13 55 70 12 15 13 17 13 16 10 13 12 15 13 17 13 16 13 17 13 16 5 7-2 4-10 11-7 8-9 10-7 8-9 10-12 14-13 14-7 8-9 10-7 8-9 10-12 14-13 14-7 8-9 10-7 8-10 11-7 8-9 10-7 8-9 10-3 3h-149l6-8 13-14 7-8 9-10 12-14 13-14 7-8 9-10 7-8 9-10 7-8 9-10 7-8 10-11 7-8 9-10 7-8 10-11 9-11 7-7 7-8 9-10 2-3-1-4-12-15-13-17-13-16-13-17-13-16-10-13-12-15-13-17-13-16-10-13-12-15-13-17-13-16-10-13-20-25z" fill="#201c34"/>
<path transform="translate(256,306)" d="m0 0 6 5 10 13 33 42 12 15 13 17 13 16 10 13 12 15 13 17 13 16 13 17 13 16 10 13 11 14 12 15 1 4-11 12-7 8-10 11-9 11-7 7-7 8-9 10-7 8-9 10-7 8-9 10-7 8-10 11-7 8-9 10-7 8-10 11-7 8-9 10-7 8-18 20-7 8-2 3h-150l6-8 13-14 7-8 9-10 7-8 9-10 7-8 18-20 9-11 7-7 7-8 9-10 12-14 13-14 7-8 9-10 12-14 13-14 7-8 9-10 2-4-10-12-10-13-12-15-13-17-13-16-13-17-13-16-10-13-11-14-12-15-13-17-13-16-10-13-12-15-13-17-13-16-1-3z" fill="#201c34"/>
</svg>
