<?xml version="1.0" encoding="UTF-8"?>
<svg version="1.1" viewBox="0 0 2048 2048" width="512" height="512" xmlns="http://www.w3.org/2000/svg">
<path transform="translate(829,127)" d="m0 0h388l16 2 12 5 11 7 6 5 8 10 8 16 2 10 1 22v1539l-1 122-3 12-8 16-9 10-7 6-16 8-15 3h-399l-13-3-14-7-10-9-8-9-8-16-2-9-1-13v-1666l2-13 5-13 8-11 7-8 8-6 14-7 9-2z" fill="#201c34"/>
<path transform="translate(1470,639)" d="m0 0h387l16 2 12 5 11 7 6 5 8 10 8 16 2 10 1 22v1033l-1 116-3 12-8 16-9 10-7 6-16 8-15 3h-399l-13-3-14-7-10-9-8-9-8-16-2-9-1-13v-1153l2-14 5-13 8-11 7-8 13-9 12-5z" fill="#201c34"/>
<path transform="translate(189,1151)" d="m0 0h387l17 2 12 5 11 7 6 5 8 10 8 16 2 10 1 37v500l-1 122-3 12-8 16-9 10-7 6-16 8-15 3h-399l-13-3-14-7-10-9-8-9-8-16-2-9-1-12v-643l2-13 5-13 8-11 7-8 11-8 14-6z" fill="#201c34"/>
</svg>
