<?xml version="1.0" encoding="UTF-8"?>
<svg version="1.1" viewBox="0 0 1308 1340" width="327" height="335" xmlns="http://www.w3.org/2000/svg">
<path transform="translate(659,72)" d="m0 0h6l65 31 58 28 28 13 52 25 35 17 20 9 16 8 37 18 23 11 37 18 23 11 17 8 46 23 2 2v410l-2 21-4 35-7 36-7 28-7 23-14 37-13 28-8 16-11 20-17 28-7 10-11 16-10 13-13 17-11 13-9 11-24 26-4 2-2 4h-2l-2 4-20 20-8 7-13 12-11 9-15 13-17 14-17 13-19 14-18 13-22 15-12 8-22 14-22 13-17 10-25 14-10 6-8 4-6-2-23-12-23-13-25-15-19-12-27-18-23-16-18-13-12-9-14-11-11-9-16-13-14-12-11-9-11-11-8-7-37-37-7-8-11-12-9-11-13-16-12-16-14-19-11-17-14-23-14-26-16-33-13-33-8-24-7-24-8-36-4-23-4-32-1-17v-407l4-4 40-20 28-13 24-12 79-38 28-13 33-16 48-23 38-18 29-14 20-9 16-8 41-20 28-13zm3 48-12 6-52 25-22 11-28 13-38 18-35 17-73 35-28 13-47 23-24 11-16 8-29 14-16 8-1 3v367l2 31 4 31 6 30 7 27 10 30 11 28 8 18 8 16 14 26 9 15 22 33 8 11 9 12 14 17 9 11 16 17 44 44h2v2l8 7 10 9 14 11 9 8 27 21 15 11 18 13 11 8 27 18 19 12 20 12 26 15 13 7 4-2 20-11 15-9 22-13 23-15 27-18 18-13 11-8 16-12 14-11 13-11 11-9 11-10 11-9 7-7 8-7 17-16 5-6 16-16 7-8 13-15 8-9 11-14 9-12 10-14 14-21 12-20 14-26 13-27 11-27 12-36 8-34 5-30 3-28 2-39v-357l-3-3-16-8-29-14-33-16-74-36-23-11-50-24-27-13-20-9-16-8-28-13-16-8-43-21-41-19z" fill="#cac9bc"/>
<path transform="translate(659,170)" d="m0 0 7 1 28 13 29 14 28 13 39 19 34 16 21 10 2 4v98l-1 5 14 18 12 17 9 15 11 21 10 25 6 20 3 11 4 26 1 16 69-3h51v124l-1 1h-168l-16-3-13-5-13-8-10-9-7-8-8-13-4-10-3-12-1-3-1-54-2-13-7-21-8-16-8-13-11-13-7-8-8-7-10-7-19-10-22-8-18-4h-26l-23 5-21 8-15 8-11 8-13 12-11 13-10 15-8 16-5 14-3 11-3 19-7 21-8 15-10 15-12 14-14 14-11 9-14 9-16 8-16 5-13 3-27 2-46 1h-40l-1-1v-123l1-1h80l15-3 8-6 6-8 4-10 8-40 7-21 8-18 8-15 13-19 10-12 7-8 16-16v-96l16-8 21-10 40-20 28-13 38-18 30-14zm1 48-40 19-27 13-28 13-26 13-17 8-2 2v33l5-2 27-14 24-10 17-5 20-4 25-3h29l29 4 22 5 19 6 21 8 25 12 13 7 5 4h3v-42l-14-7-23-11-33-16-35-17-28-13-6-3zm-21 106-30 5-26 8-24 11-19 11-14 10-10 8-13 12-4 3v2h-2l-9 11-8 10-10 15-12 23-7 20-9 42-6 15-6 10-8 10-12 9-15 7-14 3-7 1-47 2v40h22l32-1 19-3 16-5 14-7 12-9 10-9 11-13 9-13 7-17 6-24 6-25 5-13 10-19 9-13 13-16 8-9 11-9 14-11 15-9 15-7 21-7 18-4 19-2h21l21 3 21 6 18 8 19 10 13 9 10 8 16 16 12 16 12 21 7 16 5 15 4 15 3 14 2 22 1 31 3 11 6 10 9 8 10 5 4 1h130l1-1v-39l-1-1-120 1-1-30-3-28-6-28-8-24-8-18-10-17-8-12-8-10-9-10-7-8-12-11-13-10-18-11-17-9-25-10-24-7-22-4-9-1z" fill="#cac9bc"/>
<path transform="translate(646,452)" d="m0 0h22l16 3 13 5 16 10 10 8 8 8 8 13 7 15 5 17 1 8 1 48 4 23 6 15 5 10 10 14 11 12 9 9 16 10 19 8 15 4 12 2 13 1 163 1v23l-3 26-3 21-6 27-8 27-9 24-10 23-8 17-10 18-14 23-10 15-13 19-14 18-8 10-11 13-7 8-8 8-3 4h-2l-2 4-7 6-1 2h-2l-2 4-12 12-8 7-14 13-11 9-14 12-10 8-17 14-12 9-19 14-43 29-16 10-20 12-16 9-6-2-18-10-23-14-33-22-19-13-38-28-32-26-10-9-8-7-13-12-12-11-10-9-7-8-8-8-7-8-12-14-13-16-16-21-9-13-11-17-10-17-12-22-14-32-11-29-7-21-8-30-4-19-5-38-1-21 1-1h100l1 1 1 24v16l-3 2-55 1 3 22 6 25 9 26 14 35 9 19 27-6 14-3 19-4 16-4 7-2 5 1 8 15 9 14 5 8-7 2-76 19h-4l5 9 11 15 12 16 18 22 22 24 7 7 2 1v2l4 2 17 17 8 7 10 9 11 9 13 11 14 11 16 12 18 13 16 11 24 16 20 13 15 9 6 1 22-14 24-16 31-21 16-12 11-8 17-14 13-11 14-12 10-9 8-7 42-42 7-8 13-15 13-17 10-14 13-20-18-4-67-17v-3l10-15 12-21 10-21 1-3h-22l-20-2-22-5-27-9-29-14-19-12-10-8-14-11-24-24-8-10-13-15-6-7 1-4 12-20 8-16 3-8 3 2 5 12 10 18 8 10 12 14 15 15 11 9 16 12 18 10 15 7 19 7 19 4 31 2 23 1 45 1 1 4-5 16-10 24-9 19-6 10-1 3 16 4 23 5 5 1 8-16 12-29 9-26 6-25 7-31-8 1-112-1-26-3-21-5-21-7-23-12-16-13-9-9-9-11-8-10-11-18-8-17-6-21-2-11-1-51-2-11-4-12-9-14-6-7-10-7-12-4-6-1h-8l-13 3-12 6-10 8-6 8-6 12-4 16-3 17-6 18-12 25-9 15-14 20-12 14-12 12-11 9-20 15-21 13-21 11-20 8-9 3-1-2v-43l12-5 16-8 16-9 14-10 13-11 4-4h2l1-3 5-5h2l2-4 10-11 12-17 9-16 5-11 4-11 2-17 5-22 8-16 7-11 14-15 11-8 13-8 15-6z" fill="#cac9bc"/>
<path transform="translate(633,733)" d="m0 0 4 2 11 14 8 8 7 8 17 17 22 18 8 6 13 9 13 8 25 13 20 8 17 6 9 3-6 9-8 11-10 13-12 13-30 30-8 7-13 11-14 11-14 12-26 20-4 3-5-2-17-12-13-10-20-15-16-13-13-11-10-9-8-7-13-14-9-11-10-11-15-20-10-15-6-10 24-12 24-14 14-9 18-13 17-13 15-13 22-22zm-1 61-10 9-14 12-18 13-17 11-12 7-5 3 6 7 11 12 7 8 10 9 4-1 18-14 17-12v-2l6 2 11 9 16 12v4l-13 10-15 12-10 7v3l11 8 11 9 13 9 4-1 13-10 13-11 11-9 12-11 11-10 8-7 9-8-3-3-25-13-24-15-13-10-9-8-11-9-14-14-7-8z" fill="#cac9bc"/>
<path transform="translate(813,918)" d="m0 0 15 3 13 4 16 4-1 5-8 9-9 11-16 17-9 9-8 7-7 7-11 9-11 10-9 7-14 11-17 13-19 14-11 7-10 7-17 11-15 10-4 2-9-5-42-28-19-13-13-10-16-12-11-9-16-13-12-11-8-7-12-11-22-22-9-11-6-6 1-3 38-11 5-2 7 8v2l3 1 7 8 9 9 8 7 4 3v2l4 2 12 11 11 9 16 13 12 9 14 10 19 14 24 16 4-1 17-12 14-11 13-10 12-9 16-13 22-18 12-11 8-7 12-11 15-15 7-8z" fill="#cac9bc"/>
<path transform="translate(654,536)" d="m0 0h12l5 4 4 9v22l-6 29-7 21-8 16-11 20-11 16-14 19-9 10-9 11-19 19-11 9-15 12-20 14-20 12-31 16-23 9-15 5-30 8-14 3-5-1-6-15-6-18v-5l7-2 34-8 18-6 25-10 25-12 30-18 16-11 13-11 8-7 10-10 9-11 11-12 18-27 11-19 11-23 8-24 5-21 4-8z" fill="#B89C69"/>
<path transform="translate(428,280)" d="m0 0h3v47l-6 4-48 23-35 17-14 6-1 69h33v-49l1-1 30-2 8-1 1 2-5 11-8 21-7 26-3 13-2 18-1 2h-86l-1-1v-134l2-3 12-5 82-41 23-11 21-10z" fill="#cac9bc"/>
<path transform="translate(893,280)" d="m0 0 5 1 30 15 23 11 17 8 17 9 16 8 23 11 11 6 1 1v136h-82l-5-18-4-15-9-25-11-24-4-7v-4l41 1 1 13v39l33-1v-67l-15-7-36-18-17-8-16-8-19-10z" fill="#cac9bc"/>
</svg>
